<svg width="103" height="103" viewBox="0 0 103 103" fill="none" xmlns="http://www.w3.org/2000/svg">
<path d="M51.4326 8.57208C42.9556 8.57208 34.669 11.0858 27.6206 15.7954C20.5722 20.505 15.0787 27.1989 11.8347 35.0306C8.59065 42.8623 7.74186 51.4802 9.39565 59.7943C11.0494 68.1084 15.1315 75.7454 21.1257 81.7396C27.1198 87.7337 34.7568 91.8158 43.071 93.4696C51.3851 95.1234 60.0029 94.2746 67.8346 91.0306C75.6664 87.7866 82.3603 82.293 87.0698 75.2446C91.7794 68.1963 94.2932 59.9096 94.2932 51.4326C94.2932 45.8041 93.1845 40.2307 91.0306 35.0306C88.8767 29.8305 85.7196 25.1056 81.7396 21.1256C77.7596 17.1457 73.0347 13.9886 67.8346 11.8346C62.6346 9.6807 57.0612 8.57208 51.4326 8.57208ZM64.2908 55.7187H55.7187V64.2908C55.7187 65.4275 55.2671 66.5177 54.4633 67.3215C53.6595 68.1253 52.5694 68.5768 51.4326 68.5768C50.2959 68.5768 49.2057 68.1253 48.4019 67.3215C47.5981 66.5177 47.1466 65.4275 47.1466 64.2908V55.7187H38.5745C37.4377 55.7187 36.3476 55.2671 35.5438 54.4633C34.74 53.6595 34.2884 52.5693 34.2884 51.4326C34.2884 50.2959 34.74 49.2057 35.5438 48.4019C36.3476 47.5981 37.4377 47.1466 38.5745 47.1466H47.1466V38.5745C47.1466 37.4377 47.5981 36.3475 48.4019 35.5438C49.2057 34.74 50.2959 34.2884 51.4326 34.2884C52.5694 34.2884 53.6595 34.74 54.4633 35.5438C55.2671 36.3475 55.7187 37.4377 55.7187 38.5745V47.1466H64.2908C65.4275 47.1466 66.5177 47.5981 67.3215 48.4019C68.1253 49.2057 68.5768 50.2959 68.5768 51.4326C68.5768 52.5693 68.1253 53.6595 67.3215 54.4633C66.5177 55.2671 65.4275 55.7187 64.2908 55.7187Z" fill="#608CFF"/>
</svg>
