<svg width="200" height="200" viewBox="0 0 200 200" fill="none" xmlns="http://www.w3.org/2000/svg">
<path d="M80.1667 179.333H119.833C119.833 190.287 110.954 199.167 100 199.167C89.0463 199.167 80.1667 190.287 80.1667 179.333ZM168.227 128.56C162.646 122.986 159.507 115.424 159.5 107.537V80.1666C159.5 67.2926 155.324 54.7659 147.6 44.4666L138.675 32.5666C133.057 25.0754 124.239 20.6666 114.875 20.6666H109.917V5.79165C109.917 3.05323 107.697 0.833313 104.958 0.833313H95.0417C92.3032 0.833313 90.0833 3.05323 90.0833 5.79165V20.6666H85.125C75.761 20.6666 66.9434 25.0754 61.325 32.5666L52.4 44.4666C44.6756 54.7659 40.5 67.2926 40.5 80.1666V107.537C40.493 115.424 37.3541 122.986 31.7733 128.56L23.5425 136.791C21.7104 138.638 20.6776 141.131 20.6667 143.732V149.583C20.6667 155.06 25.1065 159.5 30.5833 159.5H169.417C174.893 159.5 179.333 155.06 179.333 149.583V143.732C179.322 141.131 178.29 138.638 176.457 136.791L168.227 128.56ZM36.4342 32.6658C37.6172 31.1262 37.3528 28.9235 35.8392 27.7075L25.9225 19.9725C25.0934 19.283 24.0192 18.9607 22.9475 19.08C22.0086 19.2894 21.1896 19.8592 20.6667 20.6666C8.84636 36.3941 1.94542 55.2682 0.833326 74.9108C0.733778 76.2786 1.24163 77.6207 2.22166 78.58C3.1298 79.5953 4.42944 80.173 5.79166 80.1666H15.7083C18.351 80.1194 20.5116 78.0452 20.6667 75.4066C21.6988 59.939 27.1737 45.098 36.4342 32.6658ZM179.333 20.6666C178.711 19.7767 177.735 19.1984 176.656 19.08C175.555 18.9773 174.456 19.2963 173.582 19.9725L163.665 27.7075C162.151 28.9235 161.887 31.1262 163.07 32.6658C172.508 45.0417 178.157 59.8874 179.333 75.4066C179.438 78.0294 181.568 80.1162 184.192 80.1666H194.109C195.466 80.1486 196.756 79.5751 197.679 78.58C198.617 77.5864 199.148 76.277 199.167 74.9108C198.008 55.2778 191.112 36.4167 179.333 20.6666Z" fill="#BEBEBE"/>
</svg>
